<mxfile host="app.diagrams.net" agent="Mozilla/5.0 (X11; Ubuntu; Linux x86_64; rv:141.0) Gecko/20100101 Firefox/141.0" version="28.0.9">
  <diagram name="Page-1" id="rhtnHaQnvdn_1CptoWsz">
    <mxGraphModel dx="679" dy="380" grid="1" gridSize="1" guides="1" tooltips="1" connect="1" arrows="1" fold="1" page="1" pageScale="1" pageWidth="850" pageHeight="1100" math="0" shadow="0">
      <root>
        <mxCell id="0" />
        <mxCell id="1" parent="0" />
        <mxCell id="W43zXXG-xv_arBxFx4oW-1" value="" style="rounded=0;whiteSpace=wrap;html=1;fillColor=none;" parent="1" vertex="1">
          <mxGeometry x="298" y="22" width="193" height="327" as="geometry" />
        </mxCell>
        <mxCell id="W43zXXG-xv_arBxFx4oW-2" value="" style="rounded=0;whiteSpace=wrap;html=1;fillColor=none;" parent="1" vertex="1">
          <mxGeometry x="55" y="100" width="160" height="220" as="geometry" />
        </mxCell>
        <mxCell id="W43zXXG-xv_arBxFx4oW-3" style="edgeStyle=orthogonalEdgeStyle;rounded=0;orthogonalLoop=1;jettySize=auto;html=1;entryX=0;entryY=0.5;entryDx=0;entryDy=0;strokeColor=#000000;strokeWidth=3;" parent="1" source="W43zXXG-xv_arBxFx4oW-4" target="W43zXXG-xv_arBxFx4oW-11" edge="1">
          <mxGeometry relative="1" as="geometry" />
        </mxCell>
        <mxCell id="W43zXXG-xv_arBxFx4oW-4" value="" style="shape=trapezoid;perimeter=trapezoidPerimeter;whiteSpace=wrap;html=1;fixedSize=1;rotation=90;fillColor=none;" parent="1" vertex="1">
          <mxGeometry x="115" y="225" width="120" height="30" as="geometry" />
        </mxCell>
        <mxCell id="W43zXXG-xv_arBxFx4oW-5" value="&lt;div&gt;A&lt;/div&gt;&lt;div&gt;D&lt;/div&gt;&lt;div&gt;D&lt;br&gt;&lt;/div&gt;" style="text;html=1;align=center;verticalAlign=middle;whiteSpace=wrap;rounded=0;" parent="1" vertex="1">
          <mxGeometry x="167.5" y="225" width="15" height="30" as="geometry" />
        </mxCell>
        <mxCell id="W43zXXG-xv_arBxFx4oW-9" style="edgeStyle=orthogonalEdgeStyle;rounded=0;orthogonalLoop=1;jettySize=auto;html=1;exitX=1;exitY=0.5;exitDx=0;exitDy=0;entryX=0.75;entryY=1;entryDx=0;entryDy=0;strokeColor=#000000;strokeWidth=3;" parent="1" source="W43zXXG-xv_arBxFx4oW-11" target="W43zXXG-xv_arBxFx4oW-4" edge="1">
          <mxGeometry relative="1" as="geometry">
            <Array as="points">
              <mxPoint x="315" y="240" />
              <mxPoint x="315" y="305" />
              <mxPoint x="140" y="305" />
              <mxPoint x="140" y="270" />
            </Array>
          </mxGeometry>
        </mxCell>
        <mxCell id="W43zXXG-xv_arBxFx4oW-36" style="edgeStyle=orthogonalEdgeStyle;rounded=0;orthogonalLoop=1;jettySize=auto;html=1;exitX=1;exitY=0.5;exitDx=0;exitDy=0;entryX=0.25;entryY=1;entryDx=0;entryDy=0;strokeWidth=3;" parent="1" source="W43zXXG-xv_arBxFx4oW-11" target="W43zXXG-xv_arBxFx4oW-35" edge="1">
          <mxGeometry relative="1" as="geometry" />
        </mxCell>
        <mxCell id="W43zXXG-xv_arBxFx4oW-11" value="V_mem" style="rounded=0;whiteSpace=wrap;html=1;fillColor=#CCCCCC;" parent="1" vertex="1">
          <mxGeometry x="225" y="220" width="70" height="40" as="geometry" />
        </mxCell>
        <mxCell id="W43zXXG-xv_arBxFx4oW-12" value="" style="endArrow=classic;html=1;rounded=0;entryX=0.25;entryY=1;entryDx=0;entryDy=0;fillColor=#d5e8d4;strokeColor=#666666;strokeWidth=3;" parent="1" target="W43zXXG-xv_arBxFx4oW-4" edge="1">
          <mxGeometry width="50" height="50" relative="1" as="geometry">
            <mxPoint x="75" y="210" as="sourcePoint" />
            <mxPoint x="105" y="195" as="targetPoint" />
          </mxGeometry>
        </mxCell>
        <mxCell id="W43zXXG-xv_arBxFx4oW-13" value="i_weight" style="edgeLabel;html=1;align=center;verticalAlign=middle;resizable=0;points=[];labelBackgroundColor=none;" parent="W43zXXG-xv_arBxFx4oW-12" vertex="1" connectable="0">
          <mxGeometry x="-0.7412" y="-2" relative="1" as="geometry">
            <mxPoint x="-1" y="-17" as="offset" />
          </mxGeometry>
        </mxCell>
        <mxCell id="W43zXXG-xv_arBxFx4oW-14" value="" style="endArrow=classic;html=1;rounded=0;strokeColor=#666666;strokeWidth=3;" parent="1" edge="1">
          <mxGeometry width="50" height="50" relative="1" as="geometry">
            <mxPoint x="174.8" y="130" as="sourcePoint" />
            <mxPoint x="174.8" y="190" as="targetPoint" />
          </mxGeometry>
        </mxCell>
        <mxCell id="W43zXXG-xv_arBxFx4oW-15" value="i_spike_flag" style="edgeLabel;html=1;align=center;verticalAlign=middle;resizable=0;points=[];labelBackgroundColor=none;" parent="W43zXXG-xv_arBxFx4oW-14" vertex="1" connectable="0">
          <mxGeometry x="-0.6267" y="-1" relative="1" as="geometry">
            <mxPoint x="1" y="-16" as="offset" />
          </mxGeometry>
        </mxCell>
        <mxCell id="W43zXXG-xv_arBxFx4oW-45" style="edgeStyle=orthogonalEdgeStyle;rounded=0;orthogonalLoop=1;jettySize=auto;html=1;exitX=1;exitY=0.5;exitDx=0;exitDy=0;entryX=0.25;entryY=1;entryDx=0;entryDy=0;strokeWidth=3;" parent="1" source="W43zXXG-xv_arBxFx4oW-19" target="W43zXXG-xv_arBxFx4oW-42" edge="1">
          <mxGeometry relative="1" as="geometry" />
        </mxCell>
        <mxCell id="W43zXXG-xv_arBxFx4oW-19" value="V_threshold" style="rounded=0;whiteSpace=wrap;html=1;fillColor=#CCCCCC;" parent="1" vertex="1">
          <mxGeometry x="308" y="159" width="70" height="40" as="geometry" />
        </mxCell>
        <mxCell id="W43zXXG-xv_arBxFx4oW-22" value="" style="shape=trapezoid;perimeter=trapezoidPerimeter;whiteSpace=wrap;html=1;fixedSize=1;rotation=90;fillColor=none;" parent="1" vertex="1">
          <mxGeometry x="402.5" y="271.5" width="76" height="22" as="geometry" />
        </mxCell>
        <mxCell id="W43zXXG-xv_arBxFx4oW-23" value="&amp;lt;" style="text;html=1;align=center;verticalAlign=middle;whiteSpace=wrap;rounded=0;" parent="1" vertex="1">
          <mxGeometry x="432.5" y="267.5" width="16" height="30" as="geometry" />
        </mxCell>
        <mxCell id="W43zXXG-xv_arBxFx4oW-24" style="edgeStyle=orthogonalEdgeStyle;rounded=0;orthogonalLoop=1;jettySize=auto;html=1;exitX=0.5;exitY=0;exitDx=0;exitDy=0;entryX=0.5;entryY=0;entryDx=0;entryDy=0;strokeColor=#000000;strokeWidth=3;" parent="1" source="W43zXXG-xv_arBxFx4oW-25" target="W43zXXG-xv_arBxFx4oW-11" edge="1">
          <mxGeometry relative="1" as="geometry" />
        </mxCell>
        <mxCell id="W43zXXG-xv_arBxFx4oW-25" value="" style="shape=trapezoid;perimeter=trapezoidPerimeter;whiteSpace=wrap;html=1;fixedSize=1;rotation=-90;fillColor=none;" parent="1" vertex="1">
          <mxGeometry x="313" y="76.5" width="82.5" height="25" as="geometry" />
        </mxCell>
        <mxCell id="W43zXXG-xv_arBxFx4oW-26" value="&lt;div&gt;M&lt;/div&gt;&lt;div&gt;U&lt;/div&gt;&lt;div&gt;X&lt;/div&gt;" style="text;html=1;align=center;verticalAlign=middle;whiteSpace=wrap;rounded=0;" parent="1" vertex="1">
          <mxGeometry x="346.25" y="74" width="16" height="30" as="geometry" />
        </mxCell>
        <mxCell id="W43zXXG-xv_arBxFx4oW-27" value="o_spike_flag" style="text;html=1;align=center;verticalAlign=middle;whiteSpace=wrap;rounded=0;" parent="1" vertex="1">
          <mxGeometry x="495" y="166" width="60" height="30" as="geometry" />
        </mxCell>
        <mxCell id="W43zXXG-xv_arBxFx4oW-28" value="Weight update" style="text;html=1;align=center;verticalAlign=middle;whiteSpace=wrap;rounded=0;" parent="1" vertex="1">
          <mxGeometry x="55" y="105" width="60" height="30" as="geometry" />
        </mxCell>
        <mxCell id="W43zXXG-xv_arBxFx4oW-29" value="membrane update" style="text;html=1;align=center;verticalAlign=middle;whiteSpace=wrap;rounded=0;" parent="1" vertex="1">
          <mxGeometry x="303" y="27" width="60" height="30" as="geometry" />
        </mxCell>
        <mxCell id="W43zXXG-xv_arBxFx4oW-31" style="edgeStyle=orthogonalEdgeStyle;rounded=0;orthogonalLoop=1;jettySize=auto;html=1;exitX=0;exitY=0.5;exitDx=0;exitDy=0;entryX=0.25;entryY=1;entryDx=0;entryDy=0;strokeWidth=3;" parent="1" source="W43zXXG-xv_arBxFx4oW-32" target="W43zXXG-xv_arBxFx4oW-25" edge="1">
          <mxGeometry relative="1" as="geometry" />
        </mxCell>
        <mxCell id="W43zXXG-xv_arBxFx4oW-32" value="0" style="rounded=0;whiteSpace=wrap;html=1;fillColor=#CCCCCC;" parent="1" vertex="1">
          <mxGeometry x="396.75" y="96.5" width="23.75" height="25" as="geometry" />
        </mxCell>
        <mxCell id="W43zXXG-xv_arBxFx4oW-55" style="edgeStyle=orthogonalEdgeStyle;rounded=0;orthogonalLoop=1;jettySize=auto;html=1;exitX=1;exitY=0.5;exitDx=0;exitDy=0;exitPerimeter=0;entryX=0;entryY=0.5;entryDx=0;entryDy=0;strokeWidth=3;" parent="1" source="W43zXXG-xv_arBxFx4oW-33" target="W43zXXG-xv_arBxFx4oW-25" edge="1">
          <mxGeometry relative="1" as="geometry">
            <Array as="points">
              <mxPoint x="355" y="144" />
              <mxPoint x="355" y="120" />
            </Array>
          </mxGeometry>
        </mxCell>
        <mxCell id="W43zXXG-xv_arBxFx4oW-33" value="" style="shape=xor;whiteSpace=wrap;html=1;rotation=-180;" parent="1" vertex="1">
          <mxGeometry x="389" y="128" width="27" height="32" as="geometry" />
        </mxCell>
        <mxCell id="W43zXXG-xv_arBxFx4oW-37" style="edgeStyle=orthogonalEdgeStyle;rounded=0;orthogonalLoop=1;jettySize=auto;html=1;exitX=1;exitY=0.5;exitDx=0;exitDy=0;entryX=0.75;entryY=1;entryDx=0;entryDy=0;strokeWidth=3;" parent="1" source="W43zXXG-xv_arBxFx4oW-34" target="W43zXXG-xv_arBxFx4oW-35" edge="1">
          <mxGeometry relative="1" as="geometry">
            <Array as="points">
              <mxPoint x="336" y="327" />
              <mxPoint x="336" y="287" />
            </Array>
          </mxGeometry>
        </mxCell>
        <mxCell id="W43zXXG-xv_arBxFx4oW-34" value="V_leak" style="rounded=0;whiteSpace=wrap;html=1;fillColor=#CCCCCC;" parent="1" vertex="1">
          <mxGeometry x="269" y="312" width="53.75" height="30" as="geometry" />
        </mxCell>
        <mxCell id="W43zXXG-xv_arBxFx4oW-39" style="edgeStyle=orthogonalEdgeStyle;rounded=0;orthogonalLoop=1;jettySize=auto;html=1;exitX=0.5;exitY=0;exitDx=0;exitDy=0;entryX=0.25;entryY=1;entryDx=0;entryDy=0;strokeWidth=3;" parent="1" source="W43zXXG-xv_arBxFx4oW-35" target="W43zXXG-xv_arBxFx4oW-22" edge="1">
          <mxGeometry relative="1" as="geometry" />
        </mxCell>
        <mxCell id="W43zXXG-xv_arBxFx4oW-44" style="edgeStyle=orthogonalEdgeStyle;rounded=0;orthogonalLoop=1;jettySize=auto;html=1;exitX=0.5;exitY=0;exitDx=0;exitDy=0;entryX=0.75;entryY=1;entryDx=0;entryDy=0;strokeWidth=3;" parent="1" source="W43zXXG-xv_arBxFx4oW-35" target="W43zXXG-xv_arBxFx4oW-42" edge="1">
          <mxGeometry relative="1" as="geometry">
            <Array as="points">
              <mxPoint x="402" y="263" />
              <mxPoint x="402" y="217" />
            </Array>
          </mxGeometry>
        </mxCell>
        <mxCell id="W43zXXG-xv_arBxFx4oW-35" value="" style="shape=trapezoid;perimeter=trapezoidPerimeter;whiteSpace=wrap;html=1;fixedSize=1;rotation=90;fillColor=none;" parent="1" vertex="1">
          <mxGeometry x="324" y="248" width="95" height="30" as="geometry" />
        </mxCell>
        <mxCell id="W43zXXG-xv_arBxFx4oW-38" value="&lt;div&gt;S&lt;/div&gt;&lt;div&gt;U&lt;/div&gt;&lt;div&gt;B&lt;/div&gt;" style="text;html=1;align=center;verticalAlign=middle;whiteSpace=wrap;rounded=0;" parent="1" vertex="1">
          <mxGeometry x="365" y="248" width="15" height="30" as="geometry" />
        </mxCell>
        <mxCell id="W43zXXG-xv_arBxFx4oW-41" style="edgeStyle=orthogonalEdgeStyle;rounded=0;orthogonalLoop=1;jettySize=auto;html=1;exitX=1;exitY=0.5;exitDx=0;exitDy=0;entryX=0.75;entryY=1;entryDx=0;entryDy=0;strokeWidth=3;" parent="1" source="W43zXXG-xv_arBxFx4oW-40" target="W43zXXG-xv_arBxFx4oW-22" edge="1">
          <mxGeometry relative="1" as="geometry">
            <Array as="points">
              <mxPoint x="402" y="332" />
              <mxPoint x="411" y="332" />
              <mxPoint x="411" y="302" />
            </Array>
          </mxGeometry>
        </mxCell>
        <mxCell id="W43zXXG-xv_arBxFx4oW-40" value="V_min" style="rounded=0;whiteSpace=wrap;html=1;fillColor=#CCCCCC;" parent="1" vertex="1">
          <mxGeometry x="348" y="316" width="53.75" height="30" as="geometry" />
        </mxCell>
        <mxCell id="W43zXXG-xv_arBxFx4oW-46" style="edgeStyle=orthogonalEdgeStyle;rounded=0;orthogonalLoop=1;jettySize=auto;html=1;exitX=0.5;exitY=0;exitDx=0;exitDy=0;strokeColor=#666666;strokeWidth=3;" parent="1" source="W43zXXG-xv_arBxFx4oW-42" edge="1">
          <mxGeometry relative="1" as="geometry">
            <mxPoint x="533" y="198" as="targetPoint" />
          </mxGeometry>
        </mxCell>
        <mxCell id="W43zXXG-xv_arBxFx4oW-42" value="" style="shape=trapezoid;perimeter=trapezoidPerimeter;whiteSpace=wrap;html=1;fixedSize=1;rotation=90;fillColor=none;" parent="1" vertex="1">
          <mxGeometry x="402.5" y="187" width="76" height="22" as="geometry" />
        </mxCell>
        <mxCell id="W43zXXG-xv_arBxFx4oW-43" value="&amp;gt;" style="text;html=1;align=center;verticalAlign=middle;whiteSpace=wrap;rounded=0;" parent="1" vertex="1">
          <mxGeometry x="430" y="183" width="16" height="30" as="geometry" />
        </mxCell>
        <mxCell id="W43zXXG-xv_arBxFx4oW-53" style="edgeStyle=orthogonalEdgeStyle;rounded=0;orthogonalLoop=1;jettySize=auto;html=1;exitX=0.5;exitY=0;exitDx=0;exitDy=0;entryX=0.175;entryY=0.25;entryDx=0;entryDy=0;entryPerimeter=0;strokeColor=#666666;strokeWidth=3;" parent="1" source="W43zXXG-xv_arBxFx4oW-42" target="W43zXXG-xv_arBxFx4oW-33" edge="1">
          <mxGeometry relative="1" as="geometry">
            <Array as="points">
              <mxPoint x="463" y="198" />
              <mxPoint x="463" y="152" />
            </Array>
          </mxGeometry>
        </mxCell>
        <mxCell id="W43zXXG-xv_arBxFx4oW-54" style="edgeStyle=orthogonalEdgeStyle;rounded=0;orthogonalLoop=1;jettySize=auto;html=1;exitX=0.5;exitY=0;exitDx=0;exitDy=0;entryX=0.175;entryY=0.75;entryDx=0;entryDy=0;entryPerimeter=0;strokeColor=#000000;strokeWidth=3;" parent="1" source="W43zXXG-xv_arBxFx4oW-22" target="W43zXXG-xv_arBxFx4oW-33" edge="1">
          <mxGeometry relative="1" as="geometry">
            <Array as="points">
              <mxPoint x="475" y="283" />
              <mxPoint x="475" y="136" />
            </Array>
          </mxGeometry>
        </mxCell>
        <mxCell id="W43zXXG-xv_arBxFx4oW-58" style="edgeStyle=orthogonalEdgeStyle;rounded=0;orthogonalLoop=1;jettySize=auto;html=1;exitX=0;exitY=0.5;exitDx=0;exitDy=0;entryX=0.75;entryY=1;entryDx=0;entryDy=0;" parent="1" source="W43zXXG-xv_arBxFx4oW-56" target="W43zXXG-xv_arBxFx4oW-25" edge="1">
          <mxGeometry relative="1" as="geometry" />
        </mxCell>
        <mxCell id="W43zXXG-xv_arBxFx4oW-56" value="V_rest" style="rounded=0;whiteSpace=wrap;html=1;fillColor=#CCCCCC;" parent="1" vertex="1">
          <mxGeometry x="396.75" y="53" width="53.75" height="30" as="geometry" />
        </mxCell>
      </root>
    </mxGraphModel>
  </diagram>
</mxfile>
